<?xml version="1.0" encoding="UTF-8"?>
<!-- Generated by Pixelmator Pro 2.4.3 -->
<svg width="600" height="353" viewBox="0 0 600 353" xmlns="http://www.w3.org/2000/svg" xmlns:xlink="http://www.w3.org/1999/xlink">
    <path id="Path" fill="#ffffff" fill-rule="evenodd" stroke="none" d="M 224 208 L 311 244 L 380 201 L 380 98 L 311 126 L 221 104 L 224 208 Z"/>
    <path id="path1" fill="none" stroke="#ffffff" stroke-width="5" stroke-linecap="round" d="M 90 300 L 512 300 L 431 149 L 173 149 L 90 300 Z"/>
    <path id="path2" fill="none" stroke="#ffffff" stroke-width="5" stroke-linecap="round" d="M 372 99 L 310 125 L 230 104 L 301 82 Z"/>
    <path id="Circular-Outline" fill="#ffffff" fill-rule="evenodd" stroke="none" d="M 303 104 C 285 104 271 89 271 71 C 271 53 285 39 303 39 C 321 39 336 53 336 71 C 336 89 321 104 303 104 Z M 304 60 C 310 59 312 55 312 51 C 311 47 308 43 303 44 C 297 44 294 48 295 52 C 295 55 297 60 304 60 Z"/>
</svg>
