<?xml version="1.0" encoding="UTF-8"?>
<!-- Generated by Pixelmator Pro 2.4.3 -->
<svg width="600" height="353" viewBox="0 0 600 353" xmlns="http://www.w3.org/2000/svg" xmlns:xlink="http://www.w3.org/1999/xlink">
    <path id="Path" fill="none" stroke="#FFFFFF" stroke-width="3" stroke-linecap="round" stroke-linejoin="round" d="M 243 217 L 234 218 L 217 230 L 197.692459 231.893341 L 182.824738 229.253448 L 170.233749 222.989777 L 164.90123 214.03035 L 157.510834 212.552887 L 152.87825 203.900757 L 152.747894 194.162247 L 148.040817 184.951401 L 148.858704 166.515747 L 153.446274 155.566727 L 153.446274 146.796631 L 160.223648 138.217438 L 167.694748 136.241791 L 180.048294 126.341888 L 191.774857 124.982376 L 197.380508 120.934891 L 224.677826 126.487778 L 239.578125 139.916824 L 245.919403 140.809189 L 251.393143 147.938873 L 250.76149 154.626236 L 254.265808 160.978378 L 256.416809 179.356613 L 254.189758 200.270737 L 241.730682 209.076508 L 243 217 Z"/>
    <path id="Path-copy" fill="none" stroke="#FFFFFF" stroke-width="3" stroke-linecap="round" stroke-linejoin="round" d="M 397.832703 162.557602 L 391.403687 163.271942 L 379.259979 171.843964 L 365.467926 173.196442 L 354.847382 171.310684 L 345.85321 166.836304 L 342.043976 160.436279 L 336.764771 159.380875 L 333.455536 153.200348 L 333.362427 146.24379 L 330 139.664154 L 330.584259 126.494904 L 333.861298 118.673645 L 333.861298 112.408844 L 338.702637 106.280426 L 344.03949 104.869156 L 352.864075 97.797302 L 361.240784 96.826141 L 365.245087 93.934906 L 384.744537 97.90152 L 395.388336 107.494354 L 399.918152 108.131805 L 403.828217 113.224792 L 403.377014 118.001816 L 405.88028 122.539368 L 407.416809 135.667603 L 405.825958 150.6073 L 396.925995 156.897568 L 397.832703 162.557602 Z"/>
    <path id="Path-copy-2" fill="none" stroke="#FFFFFF" stroke-width="3" stroke-linecap="round" stroke-linejoin="round" d="M 330.31488 71.800812 L 325.830475 72.299072 L 317.359985 78.278259 L 307.739685 79.221649 L 300.331635 77.906281 L 294.057983 74.785309 L 291.40097 70.321136 L 287.718567 69.584961 L 285.410339 65.273895 L 285.345367 60.421539 L 283 55.832092 L 283.407532 46.64624 L 285.693359 41.190735 L 285.693359 36.820892 L 289.070282 32.546173 L 292.792877 31.561798 L 298.948212 26.628998 L 304.791168 25.951599 L 307.584259 23.934906 L 321.185577 26.701691 L 328.609863 33.392944 L 331.769501 33.837555 L 334.496887 37.390045 L 334.182159 40.722107 L 335.928223 43.887177 L 337 53.044403 L 335.89035 63.465179 L 329.682404 67.852814 L 330.31488 71.800812 Z"/>
    <path id="path1" fill="none" stroke="#FFFFFF" stroke-width="17" stroke-linecap="round" stroke-linejoin="round" d="M 293.263153 218 L 260 292.026306 L 266.236847 305 L 332.07019 305 L 339 292.026306 L 303.657898 218 L 293.263153 218 Z"/>
    <path id="Rectangle" fill="#FFFFFF" fill-rule="evenodd" stroke="none" d="M 287 234 L 310 234 L 310 223 L 287 223 Z"/>
    <path id="Rectangle-copy-3" fill="#FFFFFF" fill-rule="evenodd" stroke="none" d="M 265 306 L 332 306 L 332 287 L 265 287 Z"/>
    <path id="Rectangle-copy" fill="#FFFFFF" fill-rule="evenodd" stroke="none" d="M 262.998657 282.003143 L 276.518799 304.519226 L 286.80658 298.341736 L 273.286438 275.825684 Z"/>
    <path id="Rectangle-copy-2" fill="#FFFFFF" fill-rule="evenodd" stroke="none" d="M 324.448242 274.832397 L 310.148071 298.263824 L 320.391144 304.515167 L 334.691315 281.08374 Z"/>
</svg>
