<svg width="600" height="353" xmlns="http://www.w3.org/2000/svg"><path id="Path" fill="#fff" fill-rule="evenodd" stroke="none" d="m224 208 87 36 69-43V98l-69 28-90-22 3 104Z"/><path id="path1" fill="none" stroke="#fff" stroke-width="5" stroke-linecap="round" d="M90 300h422l-81-151H173L90 300Z"/><path id="path2" fill="none" stroke="#fff" stroke-width="5" stroke-linecap="round" d="m372 99-62 26-80-21 71-22Z"/><path id="Circular-Outline" fill="#fff" fill-rule="evenodd" stroke="none" d="M303 104c-18 0-32-15-32-33s14-32 32-32 33 14 33 32-15 33-33 33Zm1-44c6-1 8-5 8-9-1-4-4-8-9-7-6 0-9 4-8 8 0 3 2 8 9 8Z"/></svg>