<svg width="600" height="353" xmlns="http://www.w3.org/2000/svg"><path id="Path" fill="#fff" fill-rule="evenodd" stroke="none" d="m236.39 201.805 73 30.207 57.897-36.081v-86.425L309.391 133l-75.517-18.46 2.517 87.265Z"/><path id="path1" fill="none" stroke="#fff" stroke-width="5" stroke-linecap="round" stroke-linejoin="round" d="M123.954 279h354.092l-67.965-126.701H193.598L123.954 279Z"/><path id="path2" fill="none" stroke="#fff" stroke-width="5" stroke-linecap="round" stroke-linejoin="round" d="m360.575 110.345-52.023 21.816-67.127-17.62L301 96.08Z"/><path id="Circular-Outline" fill="#fff" fill-rule="evenodd" stroke="none" d="M302.678 114.54c-15.103 0-26.85-12.586-26.85-27.69 0-15.103 11.747-26.85 26.85-26.85 15.104 0 27.69 11.747 27.69 26.85 0 15.104-12.586 27.69-27.69 27.69Zm.84-36.92c5.034-.838 6.712-4.195 6.712-7.551-.84-3.356-3.356-6.713-7.552-5.874-5.034 0-7.552 3.357-6.712 6.713 0 2.517 1.678 6.713 7.551 6.713Z"/></svg>