<svg width="180" height="180" xmlns="http://www.w3.org/2000/svg"><path id="svg4" fill="#FFF" stroke="none" d="M145.728 91.172c-.374.207-.747.455-1.308.786h-3.736c-.047.248-.093.413-.187.785-1.214.29-2.522.62-3.876.869-1.448.29-2.802-.497-4.25-.414-.327-.496-.98-.744-1.214-1.406-.327-.95-1.168-1.53-2.289-1.902-1.074-.33-2.055-.992-3.175-1.158-1.168-.165-1.962-.827-2.99-1.116-.607-.207-1.354-.165-1.96-.372-1.215-.33-2.663-.455-3.644-1.117-1.027-.62-2.475-.785-2.989-1.984-1.728.124-2.008-1.572-3.596-2.068-1.074-.124-2.522-.992-3.83-.082-.887-.124-1.634-.29-2.335-.373-1.027.993-1.354 2.316-2.895 2.605-.42.869-.887 1.778-1.308 2.647-.467.95-.093 1.82.467 2.729.514.827.934 1.695 1.261 2.646a5.482 5.482 0 0 0 1.868 2.605c.514.372.934.91 1.121 1.447.234.662.374 1.24 1.028 1.737.14.124.046.538.093.827 1.028 1.034 2.382 1.985 2.989 3.225.56 1.2 1.401 2.233 2.148 3.556-.14 1.075.42 2.026 1.168 3.101.887 1.24 1.401 2.688 2.569 3.804-.094.869 1.027.951 1.307 1.613-.14 2.068.84 4.052.607 6.161-.046.538.187 1.158.467 1.695.654 1.158.094 2.647 1.261 3.68-.233 1.2 1.261 2.316.094 3.556.187 1.034-.374 2.15.42 3.184.234.29.047.786.047 1.2v5.995c0 1.075-.14 2.109.747 3.06.28.29.14.91.234 1.53a303.84 303.84 0 0 0 4.857 2.48c1.167 0 2.428-.04 3.69 0 .653 0 1.354-.206 1.96.373.187.165.935-.124 1.822-.248.327.082 1.12.248 1.775.413.607.455 1.167.91 1.868 1.447-.794.869-1.541 1.613-2.615 2.192-.748.413-1.402 1.075-2.102 1.53-.84.579-2.102.785-3.082 1.323-.794.413-1.682.744-2.896 1.24h-6.538c-1.822 0-2.616.207-4.717 1.282-2.522-.248-5.231.414-7.846-.455-.654-1.323-1.588-2.522-1.869-4.052-.046-.413-.233-.91-.233-1.323-.047-1.86-.047-3.721 0-5.582.047-1.489-.327-2.853-.934-4.218-.327-.703-.28-1.53-.514-2.315-.42-1.323-1.12-2.481-2.055-3.598-1.027-1.199-2.241-2.274-2.802-3.72-.28-.662-.467-1.324-.747-2.027-.094-.248-.234-.455-.607-.662v-7.153c0-.083-.187-.207-.374-.33 1.635-.58-.747-1.696.42-2.358-.513-1.86-2.708-2.315-3.876-3.597h-1.12c-.561.538-1.075 1.034-1.822 1.695-.14.455-.374 1.24-.607 1.944-.42.082-.607.124-.84.165v1.489c-.701.91-1.682 1.612-1.822 2.398-.187 1.282-1.121 1.985-1.868 2.729-.234 1.737-2.102 2.605-2.429 4.3-.607.207-1.26.414-2.382.786-.467.372-1.4.91-2.288 1.488-1.074.662-2.195 1.365-3.176 2.15-.607.455-1.308.869-1.962 1.324-.98.703-2.101 1.364-2.895 2.233-1.12 1.24-2.802 1.778-4.157 2.646-1.074.703-1.54 1.654-2.241 2.522-.14.166-.327.29-.467.455v2.067c1.774 1.448 4.296 1.489 6.304 2.523 1.121.207 2.289.413 3.316.579.888.827 1.355 1.695.981 2.853-.794.372-1.634.785-2.428 1.157-1.822.166-3.596.331-5.418.497-.14 0-.28.082-.42.124-1.401.785-2.99.703-4.577.703h-2.896c-2.942-1.075-5.79-2.068-8.453-4.053-1.681.331-2.755-1.405-4.483-1.778a94.692 94.692 0 0 0-1.635-2.274v-2.357c0-.454.047-.95.094-1.405.046-.249.186-.62.373-.662.888-.248.934-1.365 1.588-1.406 1.168-.124.98-1.488 2.102-1.488.934-1.241 1.728-2.647 2.942-3.64 1.214-.992 1.775-2.273 2.942-3.307 1.168-1.075 1.915-2.564 2.569-3.97.42-.91 1.027-1.612 1.821-2.232 1.448-1.117 2.616-2.44 4.203-3.432.981-.62 2.055-.745 3.083-.951 1.961-.373 3.69-.91 4.997-2.357 0-.62 0-1.2-.607-1.82-.514-.537-.654-1.406-.794-2.15-.14-.992-.047-1.943-.42-2.936-.42-1.033-.42-2.191-.514-3.308-.093-1.116-.047-2.191 0-3.307 0-.29.233-.58.374-.91-.187-.33-.374-.786-.748-1.075-1.027-.744-2.101-1.447-3.316-2.233-.7-1.282-1.447-2.73-2.475-4.672-.233-.745-.187-2.15-.747-3.474.7-1.406.233-2.894.374-4.341.14-1.365.28-2.77.28-4.177-.467 1.075-2.382 1.158-2.242 2.688l-1.915 1.695a149.685 149.685 0 0 1-2.101 3.722c-1.261.827-2.896 1.736-4.297 2.853-.84.661-1.728 1.199-2.755 1.571-1.448.538-2.896 1.158-4.344 1.737-2.195.868-3.456.827-5.37-.29-1.075-.62-2.009-1.406-2.616-1.86-.84-1.861-1.541-3.35-2.195-4.756.187-.868.374-1.695.607-2.687.374-.331.934-.786 1.728-1.406.56.083 1.401.207 2.522.33.887-.413 2.102-.744 3.223-1.405 1.587-.868 2.335-2.15 2.989-3.473.793-1.613 1.494-3.308 2.381-4.921.327-.579.888-1.034 1.215-1.406 1.26-2.646 3.175-4.92 2.942-7.856.98-1.075 2.195-2.026 2.989-3.39.747-1.283 2.242-2.275 4.016-2.688.654-.166.84-.91 1.541-1.117.467-.165 1.215-.165 1.402-.455.653-1.075 2.101-1.364 2.708-2.48.514-.869 1.261-1.613 1.915-2.399.187-.207.327-.455.374-.703.233-1.447 1.4-2.44 2.662-3.101 1.167-.62 1.448-1.365 1.588-2.357v-.413c0-.042.093-.083.14-.166l.747-.661v-1.53c.794-1.117 1.448-2.068 2.475-2.812 1.168-.827 2.289-1.53 3.783-1.2.84-1.364 2.756-1.736 3.176-3.183.98-.455 1.961-.868 3.129-1.406h2.942c.654-.455 1.215-.868 1.822-1.24s1.307-.703 1.4-1.489c.561-.207 1.122-.455 1.775-.703 0-.248.047-.496.047-.744 1.214-1.613 2.849-2.977 3.923-4.755.747-1.2 2.242-2.026 3.41-3.019.326-.29.653-.62 1.027-.868.42-.29.934-.703 1.401-.703.747 0 1.074-.413 1.541-.786.654-.413 1.681.455 2.195-.496h1.868c.187.124.374.331.607.414.56.124 1.215.041 1.728.248 2.289.95 3.503 2.812 4.624 4.672.234.372.047 1.075.327 1.282.794.579.84 1.447.98 2.109.187.703.795.95.981 1.488.234.745-.42 1.654.467 2.316.14 1.571.28 3.101-1.167 4.052-.28 1.447-.467 2.688-.7 3.928l-.888.786v3.804c-.514.248-.934.496-1.354.703v1.489c.373.289.934.661 1.447 1.033v1.24l.888.786c0 1.778.046 3.556 0 5.376-.047.992.233 1.82.98 2.563.654.62 1.542 1.282 1.775 2.026.467 1.613 1.682 3.019 1.541 4.756.748.289 1.588.33 1.869.744.56.785 1.494 1.199 2.195 1.82.84.702 1.82 1.281 2.755 1.86 1.074 1.406 2.569 2.48 3.923 3.68 1.401 1.24 2.942 2.357 4.297 3.432 1.214.207 2.288.413 3.456.579.653.455 1.307 1.075 2.101 1.364.981.372 1.355 1.2 1.868 1.82.56.744 1.261 1.199 2.102 1.654.14 1.323.98 2.357 1.961 3.266.234.58.234 1.406.234 2.233Z"/></svg>