<svg width="180" height="180" xmlns="http://www.w3.org/2000/svg"><path id="Shape" fill="#fff" fill-rule="evenodd" stroke="#fff" stroke-width="3" d="M72 108h36V72H72Zm75-64c0-6.075-4.925-11-11-11s-11 4.925-11 11 4.925 11 11 11 11-4.925 11-11Z"/><path id="Rectangle-copy-4" fill="none" stroke="#fff" stroke-width="3" d="M72 154h36v-36H72Z"/><path id="Rectangle-copy-5" fill="none" stroke="#fff" stroke-width="3" d="M118 62h36V26h-36Z"/><path id="Rectangle-copy-3" fill="none" stroke="#fff" stroke-width="3" d="M72 62h36V26H72Z"/><path id="Rectangle-copy-2" fill="none" stroke="#fff" stroke-width="3" d="M118 108h36V72h-36Z"/><path id="Rectangle-copy-6" fill="#fff" fill-rule="evenodd" stroke="#fff" stroke-width="3" d="M87 71h6v-8h-6Z"/><path id="Rectangle-copy-7" fill="#fff" fill-rule="evenodd" stroke="#fff" stroke-width="3" d="M87 117h6v-8h-6Z"/><path id="Rectangle-copy-8" fill="#fff" fill-rule="evenodd" stroke="#fff" stroke-width="3" d="M109 93h8v-6h-8Z"/><path id="Rectangle-copy-9" fill="#fff" fill-rule="evenodd" stroke="#fff" stroke-width="3" d="M109 47h8v-6h-8Z"/><path id="Rectangle-copy" fill="none" stroke="#fff" stroke-width="3" d="M26 108h36V72H26Z"/></svg>