<svg width="180" height="180" xmlns="http://www.w3.org/2000/svg"><path id="Path" fill="#fff" fill-rule="evenodd" stroke="none" d="m46.118 27.669-14.9 8.602v17.206l14.9 8.602 14.9-8.602V36.27Z"/><path id="Polygon-copy" fill="#fff" fill-rule="evenodd" stroke="none" d="m80.528 27.669-14.9 8.602v17.206l14.9 8.602 14.9-8.602V36.27Z"/><path id="Polygon-copy-2" fill="#fff" fill-rule="evenodd" stroke="none" d="m114.939 27.669-14.9 8.602v17.206l14.9 8.602 14.9-8.602V36.27Z"/><path id="Polygon-copy-3" fill="#fff" fill-rule="evenodd" stroke="none" d="m97.734 57.3-14.9 8.603v17.205l14.9 8.602 14.9-8.602V65.903Z"/><path id="Polygon-copy-4" fill="#fff" fill-rule="evenodd" stroke="none" d="m133.1 57.3-14.9 8.603v17.205l14.9 8.602 14.9-8.602V65.903Z"/><path id="Polygon-copy-5" fill="#fff" fill-rule="evenodd" stroke="none" d="m114.939 87.887-14.9 8.603v17.205l14.9 8.602 14.9-8.602V96.49Z"/><path id="Polygon-copy-6" fill="#fff" fill-rule="evenodd" stroke="none" d="m80.528 87.887-14.9 8.603v17.205l14.9 8.602 14.9-8.602V96.49Z"/><path id="Polygon-copy-7" fill="#fff" fill-rule="evenodd" stroke="none" d="m133.1 118.474-14.9 8.603v17.205l14.9 8.602 14.9-8.602v-17.205Z"/><path id="Polygon-copy-8" fill="#fff" fill-rule="evenodd" stroke="none" d="m45.988 88.361-14.9 8.603v17.205l14.9 8.603 14.9-8.603V96.964Z"/><path id="Polygon-copy-9" fill="#fff" fill-rule="evenodd" stroke="none" d="m63.195 118.474-14.9 8.603v17.205l14.9 8.602 14.9-8.602v-17.205Z"/></svg>