<svg width="180" height="180" xmlns="http://www.w3.org/2000/svg"><path id="Path" fill="#fff" fill-rule="evenodd" stroke="none" d="M37.628 15.429 19.815 25.713v20.569l17.813 10.284 17.813-10.284V25.713Z"/><path id="Polygon-copy" fill="#fff" fill-rule="evenodd" stroke="none" d="M78.766 15.429 60.953 25.713v20.569l17.813 10.284 17.813-10.284V25.713Z"/><path id="Polygon-copy-2" fill="#fff" fill-rule="evenodd" stroke="none" d="M119.904 15.429 102.09 25.713v20.569l17.813 10.284 17.813-10.284V25.713Z"/><path id="Polygon-copy-3" fill="#fff" fill-rule="evenodd" stroke="none" d="M99.335 50.853 81.522 61.137v20.57L99.335 91.99l17.813-10.285V61.137Z"/><path id="Polygon-copy-4" fill="#fff" fill-rule="evenodd" stroke="none" d="m141.615 50.853-17.813 10.284v20.57l17.813 10.284 17.814-10.285V61.137Z"/><path id="Polygon-copy-5" fill="#fff" fill-rule="evenodd" stroke="none" d="M119.904 87.42 102.09 97.704v20.57l17.813 10.284 17.813-10.285V97.704Z"/><path id="Polygon-copy-6" fill="#fff" fill-rule="evenodd" stroke="none" d="M78.766 87.42 60.953 97.704v20.57l17.813 10.284 17.813-10.285V97.704Z"/><path id="Polygon-copy-7" fill="#fff" fill-rule="evenodd" stroke="none" d="m141.615 123.987-17.813 10.284v20.57l17.813 10.284 17.814-10.285v-20.569Z"/><path id="Polygon-copy-8" fill="#fff" fill-rule="evenodd" stroke="none" d="M37.473 87.987 19.659 98.27v20.57l17.814 10.284 17.813-10.285V98.271Z"/><path id="Polygon-copy-9" fill="#fff" fill-rule="evenodd" stroke="none" d="M58.044 123.987 40.23 134.27v20.57l17.813 10.284 17.813-10.285v-20.569Z"/></svg>