<svg width="600" height="353" xmlns="http://www.w3.org/2000/svg"><path id="Path" fill="none" stroke="#fff" stroke-width="3" stroke-linecap="round" stroke-linejoin="round" d="m247.664 210.012-7.791.866-14.717 10.388-16.715 1.64-12.87-2.286-10.9-5.422-4.617-7.757-6.398-1.279-4.01-7.49-.113-8.43-4.075-7.974.708-15.96 3.971-9.479v-7.592l5.867-7.427 6.468-1.71 10.695-8.57 10.151-1.178 4.853-3.504 23.631 4.808 12.9 11.625 5.49.773 4.738 6.172-.547 5.789 3.034 5.5 1.862 15.91-1.928 18.105-10.786 7.623 1.099 6.86Z"/><path id="Path-copy" fill="none" stroke="#fff" stroke-width="3" stroke-linecap="round" stroke-linejoin="round" d="m381.703 162.881-5.566.619-10.512 7.42-11.94 1.171-9.194-1.632-7.787-3.874-3.297-5.54-4.57-.914-2.865-5.35-.081-6.023-2.91-5.696.505-11.4 2.837-6.771v-5.424l4.191-5.305 4.62-1.222 7.64-6.122 7.251-.84 3.467-2.504 16.88 3.434 9.215 8.305 3.921.552 3.385 4.409-.39 4.135 2.167 3.928 1.33 11.366-1.377 12.933-7.705 5.445.785 4.9Z"/><path id="Path-copy-2" fill="none" stroke="#fff" stroke-width="3" stroke-linecap="round" stroke-linejoin="round" d="m323.253 84.313-3.882.431-7.333 5.176-8.329.817-6.413-1.139-5.431-2.701-2.3-3.865-3.188-.637-1.998-3.732-.057-4.201-2.03-3.973.353-7.952 1.979-4.723V54.03l2.923-3.701 3.223-.852 5.328-4.27 5.059-.587 2.418-1.746 11.774 2.395 6.428 5.793 2.735.385 2.361 3.075-.272 2.885 1.511 2.74.928 7.927-.96 9.022-5.375 3.798.548 3.418Z"/><path id="path1" fill="none" stroke="#fff" stroke-width="17" stroke-linecap="round" stroke-linejoin="round" d="m291.177 210.878-28.796 64.085 5.4 11.23h56.991l6-11.23-30.596-64.085h-9Z"/><path id="Rectangle" fill="#fff" fill-rule="evenodd" stroke="none" d="M285.755 224.73h19.911v-9.524h-19.911Z"/><path id="Rectangle-copy-3" fill="#fff" fill-rule="evenodd" stroke="none" d="M266.71 287.06h58.001V270.61H266.71Z"/><path id="Rectangle-copy" fill="#fff" fill-rule="evenodd" stroke="none" d="m264.977 266.286 11.704 19.492 8.906-5.348-11.704-19.492Z"/><path id="Rectangle-copy-2" fill="#fff" fill-rule="evenodd" stroke="none" d="m318.174 260.078-12.38 20.284 8.868 5.412 12.38-20.284Z"/></svg>