<svg width="600" height="353" xmlns="http://www.w3.org/2000/svg"><path id="Path" fill="none" stroke="#FFF" stroke-width="3" stroke-linecap="round" stroke-linejoin="round" d="m243 217-9 1-17 12-19.308 1.893-14.867-2.64-12.591-6.263-5.333-8.96-7.39-1.477-4.633-8.652-.13-9.739-4.707-9.21.818-18.436 4.587-10.95v-8.77l6.778-8.579 7.47-1.975 12.354-9.9 11.727-1.36 5.606-4.047 27.297 5.553 14.9 13.429 6.341.892 5.474 7.13-.632 6.687 3.505 6.352 2.15 18.379-2.226 20.914-12.46 8.806L243 217Z"/><path id="Path-copy" fill="none" stroke="#FFF" stroke-width="3" stroke-linecap="round" stroke-linejoin="round" d="m397.833 162.558-6.43.714-12.143 8.572-13.792 1.352-10.62-1.885-8.995-4.475-3.809-6.4-5.28-1.055-3.308-6.18-.094-6.957-3.362-6.58.584-13.17 3.277-7.82v-6.265l4.842-6.129 5.336-1.41 8.825-7.073 8.377-.97 4.004-2.892 19.5 3.967 10.643 9.592 4.53.638 3.91 5.093-.451 4.777 2.503 4.537 1.537 13.129-1.591 14.94-8.9 6.29.907 5.66Z"/><path id="Path-copy-2" fill="none" stroke="#FFF" stroke-width="3" stroke-linecap="round" stroke-linejoin="round" d="m330.315 71.8-4.485.5-8.47 5.978-9.62.944-7.408-1.316-6.274-3.12-2.657-4.465-3.682-.736-2.309-4.311-.065-4.852-2.345-4.59.408-9.186 2.285-5.455v-4.37l3.377-4.275 3.723-.984 6.155-4.933 5.843-.677 2.793-2.017 13.602 2.767 7.424 6.69 3.16.446 2.727 3.552-.315 3.332 1.746 3.165L337 53.044l-1.11 10.421-6.208 4.388.633 3.948Z"/><path id="path1" fill="none" stroke="#FFF" stroke-width="17" stroke-linecap="round" stroke-linejoin="round" d="M293.263 218 260 292.026 266.237 305h65.833l6.93-12.974L303.658 218h-10.395Z"/><path id="Rectangle" fill="#FFF" fill-rule="evenodd" stroke="none" d="M287 234h23v-11h-23Z"/><path id="Rectangle-copy-3" fill="#FFF" fill-rule="evenodd" stroke="none" d="M265 306h67v-19h-67Z"/><path id="Rectangle-copy" fill="#FFF" fill-rule="evenodd" stroke="none" d="m262.999 282.003 13.52 22.516 10.288-6.177-13.52-22.516Z"/><path id="Rectangle-copy-2" fill="#FFF" fill-rule="evenodd" stroke="none" d="m324.448 274.832-14.3 23.432 10.243 6.251 14.3-23.431Z"/></svg>