<svg width="800" height="800" xmlns="http://www.w3.org/2000/svg"><path id="Path" fill="#fff" fill-rule="evenodd" stroke="none" d="M46 454c59.472.25 103-55 103-55s-24.129 54.457 53 56c77.129 1.543 65-95 65-95s37.189 87.96 78 88c40.811.04 55-131 55-131s12.02 127.715 101 132c88.98 4.285 56-66 56-66s42.036 95.804 69 64c17.012-20.065 17-47 17-47s3.063 26.752 32 42c30.755 16.206 88 15 88 15s-159.304 27.055-344 26c-184.696-1.055-432.472-29.25-373-29Z"/><path id="Path-copy" fill="#fff" fill-rule="evenodd" stroke="none" d="M170 604s66.693 38.016 100-2c36.082-43.35 62-39 62-39s-27.811 50.96 13 51c40.811.04 55-98 55-98s35.684 139.3 75 100c18.582-18.574 11-34 11-34s4.62 22.299 43 40c46.286 21.347 97-17 97-17s-22.304 45.055-207 44c-184.696-1.055-249-45-249-45Z"/><path id="Path-copy-2" fill="#fff" fill-rule="evenodd" stroke="none" d="M172 239s66.693 38.016 100-2c36.082-43.35 62-39 62-39s-27.811 50.96 13 51c40.811.04 55-98 55-98s35.684 139.3 75 100c18.582-18.574 11-34 11-34s4.62 22.299 43 40c46.286 21.347 97-17 97-17s-22.304 45.055-207 44c-184.696-1.055-249-45-249-45Z"/></svg>