<?xml version="1.0" encoding="UTF-8"?>
<!-- Generated by Pixelmator Pro 3.2.3 -->
<svg width="600" height="353" viewBox="0 0 600 353" xmlns="http://www.w3.org/2000/svg" xmlns:xlink="http://www.w3.org/1999/xlink">
    <path id="Path" fill="#ffffff" fill-rule="evenodd" stroke="none" d="M 236.390808 201.804596 L 309.390808 232.011505 L 367.287354 195.93103 L 367.287354 109.505753 L 309.390808 133 L 233.873566 114.540237 L 236.390808 201.804596 Z"/>
    <path id="path1" fill="none" stroke="#ffffff" stroke-width="5" stroke-linecap="round" stroke-linejoin="round" d="M 123.954025 279 L 478.046021 279 L 410.080505 152.298843 L 193.597702 152.298843 L 123.954025 279 Z"/>
    <path id="path2" fill="none" stroke="#ffffff" stroke-width="5" stroke-linecap="round" stroke-linejoin="round" d="M 360.574707 110.344833 L 308.551727 132.160919 L 241.425293 114.540237 L 301 96.080475 Z"/>
    <path id="Circular-Outline" fill="#ffffff" fill-rule="evenodd" stroke="none" d="M 302.678162 114.540237 C 287.574707 114.540237 275.827576 101.954025 275.827576 86.850586 C 275.827576 71.747131 287.574707 60 302.678162 60 C 317.781616 60 330.367828 71.747131 330.367828 86.850586 C 330.367828 101.954025 317.781616 114.540237 302.678162 114.540237 Z M 303.517242 77.620697 C 308.551727 76.781616 310.229889 73.425293 310.229889 70.06897 C 309.390808 66.712646 306.873566 63.356323 302.678162 64.195404 C 297.643677 64.195404 295.126434 67.551727 295.965515 70.908051 C 295.965515 73.425293 297.643677 77.620697 303.517242 77.620697 Z"/>
</svg>
