<?xml version="1.0" encoding="UTF-8"?>
<svg width="180" height="180" viewBox="0 0 180 180" xmlns="http://www.w3.org/2000/svg">
    <path id="svg4" fill="#FFFFFF" stroke="none" d="M 145.727997 91.172058 C 145.35437 91.378807 144.980759 91.6269 144.420319 91.957687 C 143.346161 91.957687 142.038498 91.957687 140.684113 91.957687 C 140.637421 92.205788 140.590714 92.371178 140.497314 92.743324 C 139.283035 93.032761 137.975357 93.363556 136.620987 93.611649 C 135.173203 93.901093 133.818832 93.115463 132.371048 93.198158 C 132.044128 92.701973 131.390305 92.45388 131.156784 91.792297 C 130.829865 90.84127 129.989227 90.262383 128.868347 89.890244 C 127.794197 89.559456 126.813438 88.897865 125.692581 88.732475 C 124.525017 88.567078 123.731064 87.905495 122.703613 87.616051 C 122.096474 87.409302 121.349236 87.450653 120.742104 87.243912 C 119.527832 86.913116 118.080055 86.78907 117.099297 86.127487 C 116.071838 85.507256 114.624054 85.341858 114.110329 84.142738 C 112.382339 84.266785 112.102119 82.57148 110.514229 82.075294 C 109.440071 81.951248 107.992287 81.082924 106.684616 81.992599 C 105.797264 81.868546 105.050018 81.703156 104.34948 81.620453 C 103.322029 82.612831 102.99511 83.935997 101.453918 84.225433 C 101.0336 85.093765 100.566574 86.003441 100.146248 86.871773 C 99.679222 87.822792 100.052841 88.691124 100.613274 89.6008 C 101.127007 90.42778 101.547325 91.296112 101.874252 92.247139 C 102.201164 93.198158 102.808304 94.149185 103.742355 94.852112 C 104.256081 95.224258 104.676407 95.761795 104.863213 96.299324 C 105.096725 96.960915 105.236839 97.539795 105.890671 98.035988 C 106.030777 98.160027 105.937378 98.573517 105.98407 98.862968 C 107.011536 99.89669 108.365913 100.84771 108.973045 102.088181 C 109.533478 103.2873 110.374123 104.32103 111.121361 105.644188 C 110.981262 106.719269 111.541687 107.670288 112.288925 108.745361 C 113.176277 109.985832 113.690002 111.433044 114.857567 112.549461 C 114.764168 113.417793 115.885033 113.500488 116.165245 114.162079 C 116.025139 116.229523 117.00589 118.214264 116.772377 120.323067 C 116.725677 120.860603 116.95919 121.480835 117.239403 122.018372 C 117.893242 123.176147 117.332809 124.664703 118.500374 125.698425 C 118.266861 126.897552 119.761345 128.013977 118.593781 129.25444 C 118.780594 130.288162 118.220161 131.404572 119.014107 132.438309 C 119.24762 132.727753 119.060806 133.223938 119.060806 133.637436 C 119.060806 135.622177 119.060806 137.64827 119.060806 139.633026 C 119.060806 140.708099 118.9207 141.741821 119.808052 142.692841 C 120.088272 142.982285 119.948158 143.602524 120.041565 144.222748 C 121.536041 145.008392 123.170639 145.835373 124.898628 146.70369 C 126.0662 146.70369 127.327171 146.662354 128.58815 146.70369 C 129.241974 146.70369 129.94252 146.496948 130.549652 147.075836 C 130.736465 147.241241 131.483704 146.951782 132.371048 146.827744 C 132.697968 146.910431 133.491913 147.075836 134.145752 147.241241 C 134.752884 147.696075 135.313309 148.150909 136.013855 148.688446 C 135.21991 149.556778 134.472672 150.301056 133.398514 150.879944 C 132.651276 151.293427 131.997437 151.955017 131.29689 152.409851 C 130.456253 152.988739 129.195282 153.19548 128.214523 153.733002 C 127.420578 154.1465 126.533226 154.477295 125.318962 154.97348 C 123.450851 154.97348 121.115723 154.97348 118.780594 154.97348 C 116.95919 154.97348 116.165245 155.180222 114.063629 156.255295 C 111.541687 156.007202 108.832939 156.668793 106.21759 155.800461 C 105.563751 154.477295 104.6297 153.278183 104.34948 151.74826 C 104.30278 151.334778 104.115967 150.838577 104.115967 150.425095 C 104.069267 148.564392 104.069267 146.70369 104.115967 144.842987 C 104.162674 143.354431 103.789055 141.989914 103.181915 140.625397 C 102.855003 139.92247 102.901703 139.09549 102.66819 138.30986 C 102.247864 136.986694 101.547325 135.828918 100.613274 134.712494 C 99.585815 133.513382 98.371552 132.438309 97.811119 130.991089 C 97.530907 130.329514 97.344093 129.667938 97.063881 128.964996 C 96.970474 128.716904 96.830368 128.510162 96.456741 128.303406 C 96.456741 125.905174 96.456741 123.506935 96.456741 121.150047 C 96.456741 121.067352 96.269936 120.943298 96.083122 120.819252 C 97.717712 120.240372 95.335884 119.123947 96.503448 118.462364 C 95.989716 116.601662 93.794693 116.14682 92.627129 114.865005 C 92.20681 114.865005 91.786484 114.865005 91.506264 114.865005 C 90.945831 115.402542 90.432106 115.898727 89.684868 116.56031 C 89.544754 117.015152 89.311241 117.800781 89.077728 118.503716 C 88.65741 118.586411 88.470596 118.627762 88.237083 118.669113 C 88.237083 119.247993 88.237083 119.826881 88.237083 120.157669 C 87.536545 121.067352 86.555794 121.770279 86.41568 122.555908 C 86.228867 123.837723 85.294815 124.540657 84.547577 125.284943 C 84.314064 127.021606 82.445961 127.889923 82.119041 129.585236 C 81.511909 129.791977 80.85807 129.998718 79.737206 130.37085 C 79.27018 130.743011 78.336128 131.280533 77.448784 131.859421 C 76.374619 132.521011 75.253754 133.223938 74.273003 134.009567 C 73.665863 134.464417 72.965324 134.877899 72.311493 135.332733 C 71.330734 136.035675 70.209877 136.69725 69.415932 137.565582 C 68.295067 138.806046 66.61377 139.343582 65.259399 140.211914 C 64.185242 140.914841 63.718212 141.865875 63.017673 142.734192 C 62.877563 142.899597 62.690754 143.023636 62.550648 143.189026 C 62.550648 143.850616 62.550648 144.553558 62.550648 145.25647 C 64.32534 146.70369 66.847282 146.745041 68.855499 147.778763 C 69.976364 147.985504 71.143929 148.192261 72.171387 148.357651 C 73.058731 149.184631 73.525764 150.052948 73.152138 151.210739 C 72.358192 151.58287 71.517548 151.996368 70.723602 152.3685 C 68.902199 152.53389 67.127502 152.69928 65.306099 152.864685 C 65.165993 152.864685 65.025887 152.947388 64.88578 152.988739 C 63.484699 153.774353 61.896809 153.691666 60.308922 153.691666 C 59.281464 153.691666 58.300709 153.691666 57.413361 153.691666 C 54.471092 152.616592 51.622234 151.624222 48.960186 149.639465 C 47.278893 149.970261 46.204731 148.233612 44.476734 147.861465 C 43.963005 147.117188 43.449276 146.414246 42.842144 145.58728 C 42.842144 144.884338 42.842144 144.057358 42.842144 143.230377 C 42.842144 142.775543 42.888847 142.279358 42.935547 141.824524 C 42.98225 141.576416 43.12236 141.204285 43.30917 141.162933 C 44.196518 140.914841 44.243221 139.798431 44.89706 139.75708 C 46.064625 139.633026 45.877815 138.268509 46.998676 138.268509 C 47.932728 137.028046 48.726673 135.622177 49.940941 134.629807 C 51.155209 133.637436 51.715641 132.355621 52.883205 131.321884 C 54.05077 130.246811 54.798012 128.758255 55.451851 127.352386 C 55.872173 126.442711 56.479309 125.739777 57.273251 125.119553 C 58.721031 124.00312 59.888599 122.679955 61.476486 121.687584 C 62.457241 121.067352 63.531403 120.943298 64.558861 120.736557 C 66.52037 120.364418 68.248367 119.826881 69.556038 118.379669 C 69.556038 117.75943 69.556038 117.180542 68.948906 116.56031 C 68.435173 116.022781 68.295067 115.154449 68.154961 114.410164 C 68.014854 113.417793 68.108261 112.466766 67.734634 111.474396 C 67.314316 110.440674 67.314316 109.282898 67.220909 108.166481 C 67.127502 107.050056 67.17421 105.974983 67.220909 104.858566 C 67.220909 104.569115 67.454422 104.279678 67.594528 103.948883 C 67.407722 103.618095 67.220909 103.163254 66.847282 102.87381 C 65.819832 102.129532 64.745667 101.426598 63.531403 100.640968 C 62.83086 99.359154 62.083622 97.911942 61.056164 95.968544 C 60.822651 95.224258 60.86935 93.81839 60.308922 92.495224 C 61.00946 91.089363 60.542435 89.6008 60.682541 88.153587 C 60.822651 86.78907 60.962757 85.383209 60.962757 83.977348 C 60.495731 85.052414 58.580925 85.135109 58.721031 86.665031 C 58.020493 87.285263 57.273251 87.946838 56.806225 88.360329 C 56.058983 89.724846 55.451851 90.799919 54.704605 92.081734 C 53.443638 92.908714 51.809048 93.81839 50.407967 94.934814 C 49.567318 95.596397 48.67997 96.133934 47.652512 96.506073 C 46.204731 97.04361 44.75695 97.663841 43.30917 98.242729 C 41.114147 99.111053 39.853176 99.06971 37.93837 97.953285 C 36.864208 97.333054 35.930157 96.547424 35.323021 96.092583 C 34.482376 94.23188 33.781837 92.743324 33.127998 91.337456 C 33.314812 90.469131 33.501621 89.642151 33.735134 88.649773 C 34.108753 88.318985 34.669186 87.864143 35.463131 87.243912 C 36.023563 87.326607 36.864208 87.450653 37.985073 87.574707 C 38.872421 87.161217 40.086689 86.830421 41.207554 86.168839 C 42.795441 85.300514 43.542683 84.018692 44.196518 82.695526 C 44.990463 81.082924 45.691002 79.387611 46.578354 77.775002 C 46.90527 77.196114 47.465702 76.74128 47.792622 76.369133 C 49.053593 73.722809 50.968399 71.448616 50.734886 68.51284 C 51.715641 67.437767 52.929909 66.48674 53.723854 65.122223 C 54.471092 63.840408 55.965576 62.84803 57.740276 62.43454 C 58.394115 62.26915 58.580925 61.524864 59.281464 61.318123 C 59.748489 61.152725 60.495731 61.152725 60.682541 60.863281 C 61.336376 59.788216 62.784161 59.498764 63.391293 58.382347 C 63.905022 57.514023 64.652267 56.769737 65.306099 55.984108 C 65.492912 55.777359 65.633018 55.529274 65.679718 55.281174 C 65.913231 53.833961 67.080795 52.841591 68.341774 52.18 C 69.509338 51.559769 69.789551 50.815491 69.929657 49.82312 C 69.929657 49.699066 69.929657 49.533676 69.929657 49.409622 C 69.929657 49.368271 70.023064 49.32692 70.069763 49.244232 C 70.303284 49.037491 70.490089 48.872101 70.817009 48.582642 C 70.817009 48.04512 70.817009 47.466217 70.817009 47.052734 C 71.610954 45.93631 72.264786 44.985291 73.292252 44.241013 C 74.459816 43.414032 75.580673 42.71109 77.075157 43.041885 C 77.91581 41.677368 79.830612 41.305237 80.250938 39.858017 C 81.231689 39.403183 82.212448 38.989685 83.380013 38.452148 C 84.220657 38.452148 85.341522 38.452148 86.322281 38.452148 C 86.976112 37.997314 87.536545 37.583832 88.143677 37.211685 C 88.750809 36.839554 89.451355 36.508743 89.544754 35.723129 C 90.105186 35.516373 90.665619 35.26828 91.319458 35.020203 C 91.319458 34.772095 91.366158 34.524002 91.366158 34.275909 C 92.580421 32.6633 94.215019 31.298798 95.289177 29.520782 C 96.036423 28.321671 97.530907 27.49469 98.698471 26.502319 C 99.025391 26.21286 99.352303 25.88208 99.725929 25.633987 C 100.146248 25.344528 100.659981 24.931046 101.127007 24.931046 C 101.874252 24.931046 102.201164 24.517563 102.66819 24.145416 C 103.322029 23.731934 104.34948 24.600266 104.863213 23.649231 C 105.470352 23.649231 106.124184 23.649231 106.731316 23.649231 C 106.918129 23.773285 107.104942 23.980026 107.338455 24.062729 C 107.89888 24.186768 108.552719 24.104065 109.066452 24.310806 C 111.354874 25.261841 112.569145 27.122543 113.690002 28.983246 C 113.923515 29.355392 113.73671 30.058319 114.01693 30.265076 C 114.810875 30.843948 114.857567 31.71228 114.997681 32.373856 C 115.184494 33.076797 115.791626 33.32489 115.978439 33.862427 C 116.211952 34.606705 115.558105 35.516373 116.445465 36.177963 C 116.585571 37.749222 116.725677 39.279129 115.277901 40.230148 C 114.997681 41.677368 114.810875 42.917831 114.577362 44.15831 C 114.297142 44.406403 114.01693 44.654495 113.690002 44.943939 C 113.690002 46.143066 113.690002 47.466217 113.690002 48.748047 C 113.176277 48.99614 112.755951 49.244232 112.335632 49.450974 C 112.335632 49.864471 112.335632 50.277954 112.335632 50.939529 C 112.709251 51.228973 113.269684 51.60112 113.783417 51.973251 C 113.783417 52.428101 113.783417 52.841591 113.783417 53.21373 C 114.110329 53.503166 114.390541 53.751266 114.670761 53.999359 C 114.670761 55.777359 114.717468 57.555367 114.670761 59.374725 C 114.624054 60.367096 114.904274 61.194077 115.65152 61.938354 C 116.305351 62.558594 117.192703 63.220169 117.426216 63.964455 C 117.893242 65.577065 119.107513 66.982925 118.9674 68.719582 C 119.714645 69.009026 120.555298 69.050377 120.835503 69.463867 C 121.395935 70.249489 122.329987 70.662979 123.030525 71.283218 C 123.871178 71.986153 124.851936 72.565033 125.785988 73.143921 C 126.860146 74.549789 128.35463 75.624855 129.709 76.823975 C 131.110077 78.064445 132.651276 79.18087 134.005646 80.255943 C 135.21991 80.462685 136.294067 80.669434 137.461639 80.834824 C 138.115479 81.289665 138.769318 81.909897 139.563263 82.199341 C 140.544006 82.57148 140.917633 83.39846 141.431366 84.018692 C 141.991791 84.762978 142.692337 85.217812 143.532974 85.672653 C 143.67308 86.995811 144.513733 88.029541 145.494492 88.939217 C 145.727997 89.518105 145.727997 90.345085 145.727997 91.172058 Z"/>
</svg>
