<?xml version="1.0" encoding="UTF-8"?>
<!-- Generated by Pixelmator Pro 3.5.7 -->
<svg width="180" height="180" viewBox="0 0 180 180" xmlns="http://www.w3.org/2000/svg">
    <path id="Shape" fill="#ffffff" fill-rule="evenodd" stroke="#ffffff" stroke-width="3" d="M 72 108 L 108 108 L 108 72 L 72 72 Z M 147 44 C 147 37.924866 142.075134 33 136 33 C 129.924866 33 125 37.924866 125 44 C 125 50.075134 129.924866 55 136 55 C 142.075134 55 147 50.075134 147 44 Z"/>
    <path id="Rectangle-copy-4" fill="none" stroke="#ffffff" stroke-width="3" d="M 72 154 L 108 154 L 108 118 L 72 118 Z"/>
    <path id="Rectangle-copy-5" fill="none" stroke="#ffffff" stroke-width="3" d="M 118 62 L 154 62 L 154 26 L 118 26 Z"/>
    <path id="Rectangle-copy-3" fill="none" stroke="#ffffff" stroke-width="3" d="M 72 62 L 108 62 L 108 26 L 72 26 Z"/>
    <path id="Rectangle-copy-2" fill="none" stroke="#ffffff" stroke-width="3" d="M 118 108 L 154 108 L 154 72 L 118 72 Z"/>
    <path id="Rectangle-copy-6" fill="#ffffff" fill-rule="evenodd" stroke="#ffffff" stroke-width="3" d="M 87 71 L 93 71 L 93 63 L 87 63 Z"/>
    <path id="Rectangle-copy-7" fill="#ffffff" fill-rule="evenodd" stroke="#ffffff" stroke-width="3" d="M 87 117 L 93 117 L 93 109 L 87 109 Z"/>
    <path id="Rectangle-copy-8" fill="#ffffff" fill-rule="evenodd" stroke="#ffffff" stroke-width="3" d="M 109 93 L 117 93 L 117 87 L 109 87 Z"/>
    <path id="Rectangle-copy-9" fill="#ffffff" fill-rule="evenodd" stroke="#ffffff" stroke-width="3" d="M 109 47 L 117 47 L 117 41 L 109 41 Z"/>
    <path id="Rectangle-copy" fill="none" stroke="#ffffff" stroke-width="3" d="M 26 108 L 62 108 L 62 72 L 26 72 Z"/>
</svg>
