<?xml version="1.0" encoding="UTF-8"?>
<!-- Generated by Pixelmator Pro 3.2.3 -->
<svg width="180" height="180" viewBox="0 0 180 180" xmlns="http://www.w3.org/2000/svg" xmlns:xlink="http://www.w3.org/1999/xlink">
    <path id="Path" fill="#ffffff" fill-rule="evenodd" stroke="none" d="M 37.628048 15.428574 L 19.81484 25.713028 L 19.81484 46.281952 L 37.628048 56.566414 L 55.441257 46.281952 L 55.441257 25.713028 Z"/>
    <path id="Polygon-copy" fill="#ffffff" fill-rule="evenodd" stroke="none" d="M 78.765884 15.428574 L 60.952682 25.713028 L 60.952682 46.281952 L 78.765884 56.566414 L 96.579094 46.281952 L 96.579094 25.713028 Z"/>
    <path id="Polygon-copy-2" fill="#ffffff" fill-rule="evenodd" stroke="none" d="M 119.903725 15.428574 L 102.090523 25.713028 L 102.090523 46.281952 L 119.903725 56.566414 L 137.716934 46.281952 L 137.716934 25.713028 Z"/>
    <path id="Polygon-copy-3" fill="#ffffff" fill-rule="evenodd" stroke="none" d="M 99.334808 50.852814 L 81.521606 61.137291 L 81.521606 81.706207 L 99.334808 91.990662 L 117.14801 81.706207 L 117.14801 61.137291 Z"/>
    <path id="Polygon-copy-4" fill="#ffffff" fill-rule="evenodd" stroke="none" d="M 141.615372 50.852814 L 123.802162 61.137291 L 123.802162 81.706207 L 141.615372 91.990662 L 159.428574 81.706207 L 159.428574 61.137291 Z"/>
    <path id="Polygon-copy-5" fill="#ffffff" fill-rule="evenodd" stroke="none" d="M 119.903725 87.419792 L 102.090523 97.704254 L 102.090523 118.273178 L 119.903725 128.557632 L 137.716934 118.273178 L 137.716934 97.704254 Z"/>
    <path id="Polygon-copy-6" fill="#ffffff" fill-rule="evenodd" stroke="none" d="M 78.765884 87.419792 L 60.952682 97.704254 L 60.952682 118.273178 L 78.765884 128.557632 L 96.579094 118.273178 L 96.579094 97.704254 Z"/>
    <path id="Polygon-copy-7" fill="#ffffff" fill-rule="evenodd" stroke="none" d="M 141.615372 123.986763 L 123.802162 134.271225 L 123.802162 154.840149 L 141.615372 165.124603 L 159.428574 154.840149 L 159.428574 134.271225 Z"/>
    <path id="Polygon-copy-8" fill="#ffffff" fill-rule="evenodd" stroke="none" d="M 37.472511 87.986763 L 19.659307 98.271217 L 19.659307 118.840141 L 37.472511 129.124603 L 55.285713 118.840141 L 55.285713 98.271217 Z"/>
    <path id="Polygon-copy-9" fill="#ffffff" fill-rule="evenodd" stroke="none" d="M 58.043941 123.986763 L 40.230736 134.271225 L 40.230736 154.840149 L 58.043941 165.124603 L 75.85714 154.840149 L 75.85714 134.271225 Z"/>
</svg>
