<?xml version="1.0" encoding="UTF-8"?>
<!-- Generated by Pixelmator Pro 3.2.3 -->
<svg width="180" height="180" viewBox="0 0 180 180" xmlns="http://www.w3.org/2000/svg" xmlns:xlink="http://www.w3.org/1999/xlink">
    <path id="Path" fill="#ffffff" fill-rule="evenodd" stroke="none" d="M 46.118107 27.668839 L 31.217979 36.271423 L 31.217979 53.476608 L 46.118107 62.079201 L 61.018234 53.476608 L 61.018234 36.271423 Z"/>
    <path id="Polygon-copy" fill="#ffffff" fill-rule="evenodd" stroke="none" d="M 80.528473 27.668839 L 65.628349 36.271423 L 65.628349 53.476608 L 80.528473 62.079201 L 95.428604 53.476608 L 95.428604 36.271423 Z"/>
    <path id="Polygon-copy-2" fill="#ffffff" fill-rule="evenodd" stroke="none" d="M 114.938843 27.668839 L 100.038719 36.271423 L 100.038719 53.476608 L 114.938843 62.079201 L 129.838959 53.476608 L 129.838959 36.271423 Z"/>
    <path id="Polygon-copy-3" fill="#ffffff" fill-rule="evenodd" stroke="none" d="M 97.733658 57.29998 L 82.833534 65.902588 L 82.833534 83.107765 L 97.733658 91.71035 L 112.633781 83.107765 L 112.633781 65.902588 Z"/>
    <path id="Polygon-copy-4" fill="#ffffff" fill-rule="evenodd" stroke="none" d="M 133.099884 57.29998 L 118.199745 65.902588 L 118.199745 83.107765 L 133.099884 91.71035 L 148 83.107765 L 148 65.902588 Z"/>
    <path id="Polygon-copy-5" fill="#ffffff" fill-rule="evenodd" stroke="none" d="M 114.938843 87.886978 L 100.038719 96.489571 L 100.038719 113.694756 L 114.938843 122.297348 L 129.838959 113.694756 L 129.838959 96.489571 Z"/>
    <path id="Polygon-copy-6" fill="#ffffff" fill-rule="evenodd" stroke="none" d="M 80.528473 87.886978 L 65.628349 96.489571 L 65.628349 113.694756 L 80.528473 122.297348 L 95.428604 113.694756 L 95.428604 96.489571 Z"/>
    <path id="Polygon-copy-7" fill="#ffffff" fill-rule="evenodd" stroke="none" d="M 133.099884 118.473969 L 118.199745 127.076569 L 118.199745 144.281754 L 133.099884 152.884338 L 148 144.281754 L 148 127.076569 Z"/>
    <path id="Polygon-copy-8" fill="#ffffff" fill-rule="evenodd" stroke="none" d="M 45.988007 88.361229 L 31.087881 96.963821 L 31.087881 114.169006 L 45.988007 122.771599 L 60.88813 114.169006 L 60.88813 96.963821 Z"/>
    <path id="Polygon-copy-9" fill="#ffffff" fill-rule="evenodd" stroke="none" d="M 63.19529 118.473969 L 48.295162 127.076569 L 48.295162 144.281754 L 63.19529 152.884338 L 78.095406 144.281754 L 78.095406 127.076569 Z"/>
</svg>
