<?xml version="1.0" encoding="UTF-8"?>
<!-- Generated by Pixelmator Pro 3.2.3 -->
<svg width="600" height="353" viewBox="0 0 600 353" xmlns="http://www.w3.org/2000/svg" xmlns:xlink="http://www.w3.org/1999/xlink">
    <path id="Path" fill="none" stroke="#ffffff" stroke-width="3" stroke-linecap="round" stroke-linejoin="round" d="M 247.664001 210.012146 L 239.872681 210.877853 L 225.155746 221.266281 L 208.441162 222.90535 L 195.570145 220.61998 L 184.67009 215.19751 L 180.053726 207.441315 L 173.655838 206.162262 L 169.645401 198.672104 L 169.532547 190.241455 L 165.457626 182.267609 L 166.16568 166.307816 L 170.137146 156.829224 L 170.137146 149.236938 L 176.004333 141.809906 L 182.472076 140.099579 L 193.166565 131.529221 L 203.318283 130.35228 L 208.171112 126.848373 L 231.80246 131.655518 L 244.701675 143.281067 L 250.19133 144.053589 L 254.929962 150.225769 L 254.383148 156.015045 L 257.41684 161.514099 L 259.278961 177.424179 L 257.351013 195.529587 L 246.565155 203.152756 L 247.664001 210.012146 Z"/>
    <path id="Path-copy" fill="none" stroke="#ffffff" stroke-width="3" stroke-linecap="round" stroke-linejoin="round" d="M 381.703003 162.881241 L 376.13739 163.499649 L 365.624573 170.920456 L 353.684753 172.091309 L 344.49054 170.458801 L 336.704254 166.585327 L 333.406586 161.0448 L 328.836365 160.131134 L 325.971558 154.78064 L 325.890961 148.758331 L 322.980103 143.062332 L 323.485901 131.661682 L 326.322815 124.890793 L 326.322815 119.467346 L 330.513977 114.161957 L 335.134125 112.940216 L 342.77359 106.8181 L 350.025299 105.977371 L 353.491852 103.474426 L 370.372559 106.908325 L 379.586914 115.21286 L 383.508392 115.764709 L 386.893341 120.173721 L 386.502747 124.309189 L 388.66983 128.237366 L 390 139.602509 L 388.622803 152.535843 L 380.918091 157.981339 L 381.703003 162.881241 Z"/>
    <path id="Path-copy-2" fill="none" stroke="#ffffff" stroke-width="3" stroke-linecap="round" stroke-linejoin="round" d="M 323.252686 84.312897 L 319.370514 84.744232 L 312.037598 89.92041 L 303.70929 90.737122 L 297.296112 89.598389 L 291.865021 86.896576 L 289.564819 83.031921 L 286.376953 82.394623 L 284.378723 78.662506 L 284.322479 74.461823 L 282.292084 70.488739 L 282.644897 62.53653 L 284.623749 57.81366 L 284.623749 54.030701 L 287.54715 50.330048 L 290.769806 49.477875 L 296.09848 45.20755 L 301.156769 44.621124 L 303.574738 42.875275 L 315.349426 45.270477 L 321.776642 51.06311 L 324.511963 51.447998 L 326.873047 54.523407 L 326.600586 57.40799 L 328.112183 60.14798 L 329.040009 68.075409 L 328.079376 77.09671 L 322.705139 80.895081 L 323.252686 84.312897 Z"/>
    <path id="path1" fill="none" stroke="#ffffff" stroke-width="17" stroke-linecap="round" stroke-linejoin="round" d="M 291.176941 210.877853 L 262.380951 274.962585 L 267.780182 286.193939 L 324.772278 286.193939 L 330.771423 274.962585 L 300.17569 210.877853 L 291.176941 210.877853 Z"/>
    <path id="Rectangle" fill="#ffffff" fill-rule="evenodd" stroke="none" d="M 285.754913 224.72908 L 305.666046 224.72908 L 305.666046 215.20636 L 285.754913 215.20636 Z"/>
    <path id="Rectangle-copy-3" fill="#ffffff" fill-rule="evenodd" stroke="none" d="M 266.709442 287.059631 L 324.711487 287.059631 L 324.711487 270.611298 L 266.709442 270.611298 Z"/>
    <path id="Rectangle-copy" fill="#ffffff" fill-rule="evenodd" stroke="none" d="M 264.976898 266.285522 L 276.681305 285.77774 L 285.587463 280.429871 L 273.883026 260.937683 Z"/>
    <path id="Rectangle-copy-2" fill="#ffffff" fill-rule="evenodd" stroke="none" d="M 318.17392 260.077789 L 305.79425 280.362427 L 314.661682 285.774231 L 327.041382 265.489563 Z"/>
</svg>
