<?xml version="1.0" encoding="UTF-8"?>
<!-- Generated by Pixelmator Pro 3.2.3 -->
<svg width="800" height="800" viewBox="0 0 800 800" xmlns="http://www.w3.org/2000/svg" xmlns:xlink="http://www.w3.org/1999/xlink">
    <path id="Path" fill="#ffffff" fill-rule="evenodd" stroke="none" d="M 46 454 C 105.471848 454.250916 149 399 149 399 C 149 399 124.871445 453.456757 202 455 C 279.128571 456.543243 267 360 267 360 C 267 360 304.188629 447.959778 345 448 C 385.811371 448.040222 400 317 400 317 C 400 317 412.020447 444.714569 501 449 C 589.979553 453.285431 557 383 557 383 C 557 383 599.036377 478.803528 626 447 C 643.011902 426.934509 643 400 643 400 C 643 400 646.062683 426.751678 675 442 C 705.755249 458.206268 763 457 763 457 C 763 457 603.69574 484.055023 419 483 C 234.304276 481.944977 -13.471852 453.749084 46 454 Z"/>
    <path id="Path-copy" fill="#ffffff" fill-rule="evenodd" stroke="none" d="M 170 604 C 170 604 236.693375 642.015869 270 602 C 306.082153 558.649475 332 563 332 563 C 332 563 304.188629 613.959778 345 614 C 385.811371 614.040222 400 516 400 516 C 400 516 435.684143 655.299438 475 616 C 493.582214 597.425537 486 582 486 582 C 486 582 490.620605 604.299011 529 622 C 575.285828 643.347473 626 605 626 605 C 626 605 603.69574 650.055054 419 649 C 234.304276 647.944946 170 604 170 604 Z"/>
    <path id="Path-copy-2" fill="#ffffff" fill-rule="evenodd" stroke="none" d="M 172 239 C 172 239 238.693375 277.015869 272 237 C 308.082153 193.649475 334 198 334 198 C 334 198 306.188629 248.959778 347 249 C 387.811371 249.040222 402 151 402 151 C 402 151 437.684143 290.299438 477 251 C 495.582214 232.425537 488 217 488 217 C 488 217 492.620605 239.299011 531 257 C 577.285828 278.347473 628 240 628 240 C 628 240 605.69574 285.054993 421 284 C 236.304276 282.944946 172 239 172 239 Z"/>
</svg>
